<svg width="275" height="45" viewBox="0 0 275 45" xmlns="http://www.w3.org/2000/svg" xmlns:xlink="http://www.w3.org/1999/xlink"><title>logo</title><desc>Created with Sketch.</desc><defs><filter x="-50%" y="-50%" width="200%" height="200%" filterUnits="objectBoundingBox" id="a"><feOffset dy="1" in="SourceAlpha" result="shadowOffsetOuter1"/><feGaussianBlur stdDeviation="1.5" in="shadowOffsetOuter1" result="shadowBlurOuter1"/><feColorMatrix values="0 0 0 0 0 0 0 0 0 0 0 0 0 0 0 0 0 0 0.249244226 0" in="shadowBlurOuter1" result="shadowMatrixOuter1"/><feMerge><feMergeNode in="shadowMatrixOuter1"/><feMergeNode in="SourceGraphic"/></feMerge></filter><path d="M3.595 15.796c0 8.82 6.636 15.708 15.708 15.708S35.01 24.616 35.01 15.796c0-8.61-6.635-15.33-15.707-15.33-9.072 0-15.708 6.72-15.708 15.33zm7.602 0c0-4.914 3.612-8.61 8.106-8.61s8.106 3.696 8.106 8.61c0 5.124-3.613 8.988-8.107 8.988s-8.106-3.864-8.106-8.988zM33.777 31h7.392l.923-13.524c.168-2.268 0-5.04 0-5.04h.084s1.008 3.15 1.68 5.04l3.15 8.694h6.3l3.15-8.694c.672-1.89 1.68-5.04 1.68-5.04h.084s-.167 2.772 0 5.04L59.146 31h7.35L64.06.97h-7.98l-4.37 12.684c-.67 1.932-1.51 4.956-1.51 4.956h-.085s-.84-3.024-1.512-4.956L44.235.97h-7.98L33.777 31zm46.27.504C85.043 31.504 87.94 28.9 88 29c.026-.1 0 2 0 2h6V14H83.364v6.29h4.242v2.31s-2.562 2.184-6.09 2.184c-4.662 0-8.516-3.4-8.516-9.114 0-4.452 2.468-8.484 9-8.484 4.01 0 7.076 2.772 7 2.814l3.604-5.544S88.74.466 81 .466c-9.102 0-15.696 6.72-15.696 15.456 0 9.828 7.056 15.582 14.742 15.582zm15.356-9.786h6.216L102.29.97h-7.56l.673 20.748zM95.193 31h6.636v-6.3h-6.637V31zm168.697.004h6.648v-6.3h-6.648v6.3zm.21-9.283h6.228L271 .97h-7.572l.673 20.75zM220 31h8.04V7.056H236V1h-24v6.056h8V31zm-34 .004h7V13l11.008 18.004H211V.97h-6.95L204 19 193.447.97H186v30.034zm-42-6.3v-6.217h4.46c2.146 0 3.155 1.386 3.155 3.066s-1.05 3.15-3.197 3.15H144zm0-12.098V7.27h3.66c1.978 0 2.777 1.177 2.777 2.563 0 1.43-.8 2.773-2.65 2.773H144zm-7 18.398h11c6.04 0 11.51-2.394 11.51-8.947 0-2.646-1.263-5.713-4.51-7.057 2.07-1.092 3.29-3.654 3.29-6.175 0-5.167-4.208-7.855-10.225-7.825H137v30.004zm-27-11.047C110 26.72 115 31 122.5 31S135 26.72 135 19.957V1h-7v18.957c0 3.15-2.75 5.043-5.5 5.043s-5.5-1.893-5.5-5.043V1h-7v18.957zm50 0C160 26.72 165 31 172.5 31S185 26.72 185 19.957V1h-7v18.957c0 3.15-2.75 5.043-5.5 5.043s-5.5-1.893-5.5-5.043V1h-7v18.957zm77 0C237 26.72 242 31 249.5 31S262 26.72 262 19.957V1h-7v18.957c0 3.15-2.75 5.043-5.5 5.043s-5.5-1.893-5.5-5.043V1h-7v18.957z" id="b"/></defs><g fill="none" fill-rule="evenodd"><g transform="translate(0 2)"><g filter="url(#a)"><use fill="#fff" xlink:href="#b"/><use xlink:href="#b"/></g><rect fill="#77216F" y="40" width="275" height="3"/></g></g></svg>