<svg width="275" height="45" viewBox="0 0 275 45" xmlns="http://www.w3.org/2000/svg" xmlns:xlink="http://www.w3.org/1999/xlink"><title>logo</title><desc>Created with Sketch.</desc><defs><filter x="-50%" y="-50%" width="200%" height="200%" filterUnits="objectBoundingBox" id="a"><feOffset dy="1" in="SourceAlpha" result="shadowOffsetOuter1"/><feGaussianBlur stdDeviation="1.5" in="shadowOffsetOuter1" result="shadowBlurOuter1"/><feColorMatrix values="0 0 0 0 0 0 0 0 0 0 0 0 0 0 0 0 0 0 0.249244226 0" in="shadowBlurOuter1" result="shadowMatrixOuter1"/><feMerge><feMergeNode in="shadowMatrixOuter1"/><feMergeNode in="SourceGraphic"/></feMerge></filter><path d="M3.595 19.796c0 8.82 6.636 15.708 15.708 15.708S35.01 28.616 35.01 19.796c0-8.61-6.635-15.33-15.707-15.33-9.072 0-15.708 6.72-15.708 15.33zm7.602 0c0-4.914 3.612-8.61 8.106-8.61s8.106 3.696 8.106 8.61c0 5.124-3.613 8.988-8.107 8.988s-8.106-3.864-8.106-8.988zM33.777 35h7.392l.923-13.524c.168-2.268 0-5.04 0-5.04h.084s1.008 3.15 1.68 5.04l3.15 8.694h6.3l3.15-8.694c.672-1.89 1.68-5.04 1.68-5.04h.084s-.167 2.772 0 5.04L59.146 35h7.35L64.06 4.97h-7.98l-4.37 12.684c-.67 1.932-1.51 4.956-1.51 4.956h-.085s-.84-3.024-1.512-4.956L44.235 4.97h-7.98L33.777 35zm46.27.504C85.043 35.504 87.94 32.9 88 33c.026-.1 0 2 0 2h6V18H83.364v6.29h4.242v2.31s-2.562 2.184-6.09 2.184c-4.662 0-8.516-3.4-8.516-9.114 0-4.452 2.468-8.484 9-8.484 4.01 0 7.076 2.772 7 2.814l3.604-5.544S88.74 4.466 81 4.466c-9.102 0-15.696 6.72-15.696 15.456 0 9.828 7.056 15.582 14.742 15.582zm15.356-9.786h6.216l.67-20.748h-7.56l.673 20.748zM95.193 35h6.636v-6.3h-6.637V35zm26.644.504c7.898 0 12.163-5.04 12.163-5.04l-3.8-5.376s-3.464 3.696-8.025 3.696c-5.575 0-8.53-4.578-8.53-9.03 0-4.326 2.744-8.568 8.53-8.568 4.18 0 7.56 3.066 7.56 3.066l3.42-5.544s-3.843-4.242-11.318-4.242c-9.08 0-15.837 6.72-15.837 15.456 0 8.904 6.377 15.582 15.837 15.582zM134 35h7V23.24h11V35h7V4.97h-7v12.012h-11V4.97h-7V35zm27.03 0H168V25h3.49l5.168 10h7.937l-5.658-10.5c-.69-1.26-1.098-1.806-1.098-1.806 2.888-1.596 4.16-5.073 4.16-8.274 0-4.368-1.882-7.434-5.18-8.736-1.26-.504-2.685-.714-5.656-.714H161.03V35zM168 18.578V11.27h2.478c3.696 0 4.536 1.344 4.536 3.612 0 2.394-1.47 3.696-3.822 3.696H168zm29.118 16.926c8.965 0 15.522-6.888 15.522-15.708 0-8.61-6.557-15.33-15.522-15.33-8.966 0-15.523 6.72-15.523 15.33 0 8.82 6.557 15.708 15.523 15.708zm-8.292-15.708c0-4.914 3.612-8.61 8.106-8.61s8.106 3.696 8.106 8.61c0 5.124-3.612 8.988-8.106 8.988s-8.106-3.864-8.106-8.988zM211.406 35h7.393l.923-13.524c.168-2.268 0-5.04 0-5.04h.084s1.008 3.15 1.68 5.04l3.15 8.694h6.3l3.15-8.694c.672-1.89 1.68-5.04 1.68-5.04h.084s-.167 2.772 0 5.04L236.776 35h7.35L241.69 4.97h-7.98l-4.37 12.684c-.67 1.932-1.51 4.956-1.51 4.956h-.085s-.84-3.024-1.512-4.956L221.865 4.97h-7.98L211.407 35zm33.544 0h19.404v-6.3H252.3v-5.67h9.156v-6.3H252.3v-5.46h11.466v-6.3H244.95V35zm20.44-9.282h6.215l.672-20.748h-7.56l.672 20.748zM265.18 35h6.635v-6.3h-6.636V35z" id="b"/></defs><g fill="none" fill-rule="evenodd"><g><g transform="translate(0 -2) translate(0 44)"><rect fill="#DB4437" width="68.75" height="3"/><rect fill="#43964E" x="68.75" width="68.75" height="3"/><rect fill="#fc0" x="137.5" width="68.75" height="3"/><rect fill="#5080D8" x="206.25" width="68.75" height="3"/></g><g filter="url(#a)" transform="translate(0 -2)"><use fill="#fff" xlink:href="#b"/><use xlink:href="#b"/></g></g></g></svg>